<svg width="24" height="24" viewBox="0 0 24 24" fill="none" xmlns="http://www.w3.org/2000/svg">
<circle cx="12" cy="12" r="12" fill="#006CFF"/>
<path d="M9.2551 9.786C9.25373 9.81829 9.25898 9.85053 9.27053 9.88072C9.28208 9.91091 9.29968 9.93841 9.32225 9.96155C9.34482 9.98468 9.37189 10.003 9.40179 10.0152C9.43168 10.0275 9.46378 10.0336 9.4961 10.033H10.3211C10.4591 10.033 10.5691 9.92 10.5871 9.783C10.6771 9.127 11.1271 8.649 11.9291 8.649C12.6151 8.649 13.2431 8.992 13.2431 9.817C13.2431 10.452 12.8691 10.744 12.2781 11.188C11.6051 11.677 11.0721 12.248 11.1101 13.175L11.1131 13.392C11.1141 13.4576 11.1409 13.5202 11.1877 13.5662C11.2345 13.6122 11.2975 13.638 11.3631 13.638H12.1741C12.2404 13.638 12.304 13.6117 12.3509 13.5648C12.3978 13.5179 12.4241 13.4543 12.4241 13.388V13.283C12.4241 12.565 12.6971 12.356 13.4341 11.797C14.0431 11.334 14.6781 10.82 14.6781 9.741C14.6781 8.23 13.4021 7.5 12.0051 7.5C10.7381 7.5 9.3501 8.09 9.2551 9.786ZM10.8121 15.549C10.8121 16.082 11.2371 16.476 11.8221 16.476C12.4311 16.476 12.8501 16.082 12.8501 15.549C12.8501 14.997 12.4301 14.609 11.8211 14.609C11.2371 14.609 10.8121 14.997 10.8121 15.549Z" fill="white"/>
</svg>
