<svg width="22" height="22" viewBox="0 0 22 22" fill="none" xmlns="http://www.w3.org/2000/svg">
<path fill-rule="evenodd" clip-rule="evenodd" d="M15.2863 2.40904C12.4023 1.76437 9.41153 1.76437 6.52754 2.40904L6.21679 2.47779C5.40555 2.65916 4.66048 3.06188 4.06433 3.64119C3.46819 4.22051 3.04431 4.95375 2.83979 5.75946C2.10874 8.64011 2.10874 11.6577 2.83979 14.5384C3.03483 15.3068 3.42958 16.01 3.984 16.5766C4.53843 17.1433 5.23282 17.5533 5.99679 17.765L6.42304 20.3097C6.43664 20.3905 6.47166 20.4662 6.52445 20.5289C6.57724 20.5915 6.64586 20.6389 6.72318 20.6661C6.80049 20.6932 6.88367 20.6991 6.96405 20.6832C7.04443 20.6673 7.11907 20.6301 7.1802 20.5755L9.68362 18.3361C11.5629 18.4508 13.4489 18.3005 15.2863 17.8897L15.598 17.821C16.4092 17.6396 17.1543 17.2369 17.7504 16.6576C18.3466 16.0782 18.7704 15.345 18.975 14.5393C19.7059 11.6586 19.7059 8.64103 18.975 5.76037C18.7704 4.95455 18.3463 4.22123 17.75 3.6419C17.1537 3.06258 16.4084 2.65993 15.597 2.47871L15.2863 2.40904ZM7.3012 5.68521C7.13084 5.66041 6.95712 5.6947 6.80895 5.78238H6.79612C6.45237 5.98404 6.14254 6.23796 5.87854 6.53679C5.65854 6.79071 5.53937 7.04738 5.5082 7.29488C5.48987 7.44154 5.5027 7.59004 5.54579 7.73029L5.56229 7.73946C5.80979 8.46637 6.13245 9.16579 6.52662 9.82396C7.03487 10.7484 7.66031 11.6034 8.38745 12.3677L8.40945 12.3989L8.44429 12.4245L8.46537 12.4493L8.49104 12.4713C9.25804 13.2006 10.115 13.829 11.0412 14.3413C12.1 14.9179 12.7425 15.1901 13.1285 15.3038V15.3093C13.2412 15.3441 13.3439 15.3597 13.4475 15.3597C13.7761 15.3354 14.0872 15.2018 14.3311 14.9802C14.629 14.7162 14.8811 14.4055 15.0773 14.0599V14.0535C15.2615 13.7051 15.1992 13.377 14.9334 13.1542C14.3994 12.6877 13.822 12.2733 13.2091 11.9167C12.7985 11.694 12.3814 11.8287 12.2127 12.0542L11.8525 12.5089C11.6673 12.7344 11.3318 12.7032 11.3318 12.7032L11.3226 12.7087C8.8192 12.0698 8.15095 9.53521 8.15095 9.53521C8.15095 9.53521 8.11979 9.19054 8.3517 9.01454L8.8027 8.65154C9.01904 8.47554 9.16937 8.05937 8.93745 7.64871C8.58326 7.03524 8.16969 6.45803 7.7027 5.92538C7.60085 5.80002 7.45801 5.71464 7.29937 5.68429L7.3012 5.68521ZM11.5307 4.58337C11.4091 4.58337 11.2926 4.63166 11.2066 4.71762C11.1207 4.80357 11.0724 4.92015 11.0724 5.04171C11.0724 5.16327 11.1207 5.27984 11.2066 5.3658C11.2926 5.45175 11.4091 5.50004 11.5307 5.50004C12.6903 5.50004 13.6528 5.87862 14.4145 6.60462C14.806 7.00154 15.1112 7.47179 15.311 7.98696C15.5118 8.50304 15.6035 9.05396 15.5796 9.60579C15.5771 9.66598 15.5864 9.72608 15.6071 9.78265C15.6278 9.83923 15.6595 9.89117 15.7003 9.93552C15.7826 10.0251 15.8971 10.0783 16.0187 10.0834C16.1403 10.0885 16.2589 10.0451 16.3484 9.96274C16.438 9.8804 16.4912 9.76585 16.4963 9.64429C16.5247 8.96549 16.412 8.28816 16.1654 7.65512C15.9176 7.01908 15.542 6.44065 15.0617 5.95563L15.0525 5.94646C14.1075 5.04354 12.9112 4.58337 11.5307 4.58337ZM11.4995 6.09037C11.378 6.09037 11.2614 6.13866 11.1754 6.22462C11.0895 6.31057 11.0412 6.42715 11.0412 6.54871C11.0412 6.67027 11.0895 6.78684 11.1754 6.8728C11.2614 6.95875 11.378 7.00704 11.4995 7.00704H11.5151C12.3511 7.06663 12.9598 7.34529 13.386 7.80271C13.8233 8.27388 14.0497 8.85962 14.0323 9.58379C14.0295 9.70535 14.0751 9.82304 14.1591 9.91097C14.2431 9.9989 14.3585 10.0499 14.4801 10.0527C14.6016 10.0555 14.7193 10.0099 14.8073 9.92588C14.8952 9.8419 14.9462 9.72643 14.949 9.60487C14.971 8.65429 14.6648 7.83387 14.058 7.17937V7.17754C13.4374 6.51204 12.5858 6.16004 11.561 6.09129L11.5454 6.08946L11.4995 6.09037ZM11.4821 7.62579C11.4208 7.62038 11.359 7.62738 11.3004 7.64638C11.2418 7.66538 11.1877 7.69599 11.1412 7.73638C11.0947 7.77676 11.0569 7.8261 11.0299 7.88145C11.0029 7.93679 10.9873 7.99701 10.9841 8.0585C10.9809 8.12 10.9901 8.1815 11.0112 8.23935C11.0323 8.2972 11.0649 8.35021 11.1069 8.39521C11.1489 8.44021 11.1996 8.47628 11.2559 8.50126C11.3121 8.52625 11.3729 8.53963 11.4345 8.54063C11.8176 8.56079 12.0624 8.67629 12.2164 8.83121C12.3713 8.98704 12.4868 9.23729 12.5079 9.62871C12.509 9.69022 12.5225 9.75086 12.5476 9.80704C12.5727 9.86321 12.6088 9.91376 12.6538 9.95568C12.6989 9.99759 12.7519 10.03 12.8097 10.051C12.8675 10.072 12.929 10.0811 12.9904 10.0779C13.0519 10.0746 13.112 10.059 13.1673 10.032C13.2226 10.005 13.2718 9.96716 13.3122 9.92072C13.3525 9.87427 13.3831 9.82018 13.4021 9.76166C13.4211 9.70315 13.4281 9.64141 13.4227 9.58012C13.3934 9.03012 13.221 8.54429 12.8681 8.18679C12.5134 7.82929 12.0303 7.65513 11.4821 7.62579Z" fill="#7E4FAC"/>
</svg>
