<svg width="21" height="21" viewBox="0 0 21 21" fill="none" xmlns="http://www.w3.org/2000/svg">
<path d="M20.5238 5.06097C20.3041 5.76289 19.9828 6.42884 19.5701 7.03759L19.5867 7.01134C19.1947 7.66467 18.7266 8.41951 18.1823 9.27584C17.7156 9.95192 17.4686 10.3019 17.4412 10.3258C17.3165 10.482 17.2358 10.6687 17.2076 10.8666L17.2067 10.8727C17.229 11.051 17.3117 11.2162 17.4412 11.3408L17.7912 11.7311C19.6637 13.6555 20.7169 14.982 20.9508 15.7106C20.9952 15.8303 21.0094 15.959 20.9923 16.0855C20.9753 16.212 20.9273 16.3323 20.8528 16.436L20.8546 16.4333C20.7665 16.5242 20.6591 16.5941 20.5404 16.6379C20.4216 16.6816 20.2945 16.6982 20.1686 16.6862H20.1721H17.8656C17.5707 16.6862 17.2994 16.583 17.0868 16.4115L17.0894 16.4132C16.7859 16.1643 16.5072 15.8865 16.2573 15.5837L16.2494 15.5732C15.8464 15.1176 15.4888 14.7341 15.1767 14.4226C14.1372 13.4344 13.3701 12.9403 12.8754 12.9403C12.7158 12.926 12.5561 12.9678 12.4239 13.0585L12.4266 13.0567C12.3698 13.1279 12.3281 13.21 12.304 13.2978C12.2799 13.3857 12.274 13.4775 12.2866 13.5677V13.5642C12.2526 13.9725 12.2415 14.3823 12.2533 14.7918V14.777V15.7911C12.2782 15.9122 12.2696 16.0378 12.2286 16.1545C12.1876 16.2712 12.1157 16.3745 12.0206 16.4535L12.0197 16.4543C11.5766 16.6545 11.0888 16.7351 10.6048 16.688L10.6162 16.6888C9.29161 16.6661 7.99832 16.2825 6.87557 15.5793L6.90619 15.5968C5.61153 14.8163 4.50183 13.7639 3.65382 12.5125L3.63019 12.4757C2.80702 11.378 2.08345 10.209 1.46807 8.98272L1.40682 8.84797C0.996757 8.05385 0.636437 7.23502 0.327941 6.39622L0.275441 6.23434C0.13241 5.79889 0.0413613 5.34805 0.00419141 4.89122L0.00244141 4.86934C0.00244141 4.42718 0.262608 4.20609 0.782941 4.20609H3.08419C3.31684 4.18787 3.54779 4.25819 3.73082 4.40297L3.72907 4.40122C3.90407 4.59284 4.03357 4.82822 4.09744 5.09072L4.10007 5.10122C4.48025 6.18999 4.94452 7.24756 5.48869 8.26434L5.43007 8.14447C5.82337 8.94337 6.29935 9.69883 6.85019 10.3985L6.83007 10.3713C7.29673 10.9442 7.66073 11.2306 7.92207 11.2306L7.95007 11.2315C8.01159 11.2316 8.07205 11.2154 8.12536 11.1847C8.17866 11.154 8.22293 11.1097 8.25369 11.0565L8.25457 11.0547C8.33834 10.8354 8.37154 10.6 8.35169 10.3661V10.3713V6.97722C8.33534 6.59239 8.24003 6.21503 8.07169 5.86859L8.07869 5.88522C7.97662 5.66504 7.84407 5.46032 7.68494 5.27709L7.68757 5.28059C7.54084 5.13411 7.44539 4.94412 7.41544 4.73897L7.41457 4.73372C7.41457 4.58497 7.48282 4.45109 7.58957 4.36359L7.59044 4.36272C7.70029 4.26211 7.84398 4.20651 7.99294 4.20697H11.6277C11.7189 4.19632 11.8114 4.20849 11.8968 4.2424C11.9821 4.2763 12.0577 4.33087 12.1168 4.40122L12.1177 4.40209C12.2282 4.6063 12.2766 4.83837 12.2568 5.06972V5.06534V9.59172C12.2429 9.77024 12.2844 9.94872 12.3758 10.1027L12.3741 10.0992C12.4061 10.1471 12.4495 10.1864 12.5003 10.2135C12.5511 10.2407 12.6078 10.2549 12.6654 10.255C12.813 10.2454 12.9562 10.1964 13.0784 10.1132L13.0758 10.115C13.3138 9.95134 13.5186 9.76497 13.6962 9.55409L13.6997 9.54972C14.2403 8.93807 14.7249 8.27918 15.1478 7.58097L15.1819 7.51972C15.4829 7.02097 15.8084 6.40672 16.1033 5.77584L16.1576 5.64722L16.5478 4.86672C16.6165 4.66491 16.7491 4.49096 16.9254 4.37114C17.1017 4.25133 17.3123 4.19216 17.5252 4.20259H17.5226H19.8247C20.4465 4.20259 20.6799 4.48872 20.5247 5.06097H20.5238Z" fill="#3375F6"/>
</svg>
