<svg width="22" height="22" viewBox="0 0 22 22" fill="none" xmlns="http://www.w3.org/2000/svg">
<path d="M10.8331 1.72412H10.8285C5.80733 1.72412 1.72412 5.80847 1.72412 10.8308C1.72412 12.8229 2.36614 14.6693 3.45781 16.1685L2.32289 19.5516L5.82327 18.4326C7.26327 19.3865 8.98101 19.9375 10.8331 19.9375C15.8543 19.9375 19.9375 15.852 19.9375 10.8308C19.9375 5.80961 15.8543 1.72412 10.8331 1.72412ZM16.132 14.5839C15.9123 15.2043 15.0404 15.7188 14.3449 15.8691C13.869 15.9704 13.2475 16.0512 11.1552 15.1838C8.47901 14.0751 6.75557 11.3556 6.62124 11.1791C6.49261 11.0027 5.53982 9.73915 5.53982 8.43234C5.53982 7.12553 6.20347 6.4892 6.47098 6.216C6.69068 5.99174 7.05381 5.88929 7.40214 5.88929C7.51484 5.88929 7.61615 5.89498 7.70722 5.89954C7.97473 5.91092 8.10905 5.92686 8.28549 6.34918C8.50519 6.87851 9.04021 8.18532 9.10395 8.31964C9.16884 8.45396 9.23373 8.6361 9.14266 8.81254C9.05728 8.99467 8.98215 9.0755 8.84783 9.23031C8.71351 9.38512 8.58601 9.50351 8.45169 9.66971C8.32875 9.81428 8.18987 9.96909 8.34468 10.2366C8.4995 10.4984 9.03452 11.3715 9.82224 12.0727C10.8388 12.9777 11.6629 13.2669 11.9578 13.3898C12.1775 13.4809 12.4393 13.4592 12.5998 13.2885C12.8035 13.0688 13.0551 12.7045 13.3112 12.3459C13.4934 12.0887 13.7233 12.0568 13.9647 12.1479C14.2105 12.2332 15.5116 12.8764 15.7792 13.0096C16.0467 13.1439 16.2231 13.2077 16.288 13.3204C16.3517 13.433 16.3517 13.9624 16.132 14.5839Z" fill="#1FDD00"/>
</svg>
